<svg xmlns="http://www.w3.org/2000/svg" xmlns:xlink="http://www.w3.org/1999/xlink" id="visual" viewBox="0 0 960 540" width="960" height="540" version="1.1"><rect x="0" y="0" width="960" height="540" fill="#001220"/><path d="M0 345L22.8 347.7C45.7 350.3 91.3 355.7 137 358.3C182.7 361 228.3 361 274 357C319.7 353 365.3 345 411.2 338C457 331 503 325 548.8 327C594.7 329 640.3 339 686 342.5C731.7 346 777.3 343 823 345C868.7 347 914.3 354 937.2 357.5L960 361L960 541L937.2 541C914.3 541 868.7 541 823 541C777.3 541 731.7 541 686 541C640.3 541 594.7 541 548.8 541C503 541 457 541 411.2 541C365.3 541 319.7 541 274 541C228.3 541 182.7 541 137 541C91.3 541 45.7 541 22.8 541L0 541Z" fill="#fa7268"/><path d="M0 427L22.8 424.8C45.7 422.7 91.3 418.3 137 410.8C182.7 403.3 228.3 392.7 274 393.8C319.7 395 365.3 408 411.2 410.7C457 413.3 503 405.7 548.8 405.5C594.7 405.3 640.3 412.7 686 413.7C731.7 414.7 777.3 409.3 823 405.5C868.7 401.7 914.3 399.3 937.2 398.2L960 397L960 541L937.2 541C914.3 541 868.7 541 823 541C777.3 541 731.7 541 686 541C640.3 541 594.7 541 548.8 541C503 541 457 541 411.2 541C365.3 541 319.7 541 274 541C228.3 541 182.7 541 137 541C91.3 541 45.7 541 22.8 541L0 541Z" fill="#ef5f67"/><path d="M0 440L22.8 440.2C45.7 440.3 91.3 440.7 137 433.7C182.7 426.7 228.3 412.3 274 407.7C319.7 403 365.3 408 411.2 417.3C457 426.7 503 440.3 548.8 438.5C594.7 436.7 640.3 419.3 686 410.8C731.7 402.3 777.3 402.7 823 403C868.7 403.3 914.3 403.7 937.2 403.8L960 404L960 541L937.2 541C914.3 541 868.7 541 823 541C777.3 541 731.7 541 686 541C640.3 541 594.7 541 548.8 541C503 541 457 541 411.2 541C365.3 541 319.7 541 274 541C228.3 541 182.7 541 137 541C91.3 541 45.7 541 22.8 541L0 541Z" fill="#e34c67"/><path d="M0 439L22.8 437.8C45.7 436.7 91.3 434.3 137 440C182.7 445.7 228.3 459.3 274 460.8C319.7 462.3 365.3 451.7 411.2 454C457 456.3 503 471.7 548.8 477.7C594.7 483.7 640.3 480.3 686 475.3C731.7 470.3 777.3 463.7 823 462C868.7 460.3 914.3 463.7 937.2 465.3L960 467L960 541L937.2 541C914.3 541 868.7 541 823 541C777.3 541 731.7 541 686 541C640.3 541 594.7 541 548.8 541C503 541 457 541 411.2 541C365.3 541 319.7 541 274 541C228.3 541 182.7 541 137 541C91.3 541 45.7 541 22.8 541L0 541Z" fill="#d53867"/><path d="M0 508L22.8 503.5C45.7 499 91.3 490 137 491C182.7 492 228.3 503 274 506.5C319.7 510 365.3 506 411.2 505.5C457 505 503 508 548.8 505.8C594.7 503.7 640.3 496.3 686 490.5C731.7 484.7 777.3 480.3 823 482.8C868.7 485.3 914.3 494.7 937.2 499.3L960 504L960 541L937.2 541C914.3 541 868.7 541 823 541C777.3 541 731.7 541 686 541C640.3 541 594.7 541 548.8 541C503 541 457 541 411.2 541C365.3 541 319.7 541 274 541C228.3 541 182.7 541 137 541C91.3 541 45.7 541 22.8 541L0 541Z" fill="#c62368"/></svg>